<?xml version="1.0" standalone="no"?>
<!DOCTYPE svg PUBLIC "-//W3C//DTD SVG 20010904//EN"
 "http://www.w3.org/TR/2001/REC-SVG-20010904/DTD/svg10.dtd">
<svg version="1.0" xmlns="http://www.w3.org/2000/svg"
 width="584.000000pt" height="393.000000pt" viewBox="0 0 584.000000 393.000000"
 preserveAspectRatio="xMidYMid meet">
<g transform="translate(0.000000,393.000000) scale(0.100000,-0.100000)"
fill="#000000" stroke="none">
<path d="M2509 2793 c-18 -4 -59 -72 -59 -97 0 -9 -6 -19 -14 -22 -8 -3 -17
-23 -21 -44 -4 -21 -13 -44 -20 -50 -7 -6 -16 -29 -20 -51 -4 -21 -10 -39 -15
-39 -9 0 -33 -55 -33 -76 0 -8 -4 -14 -9 -14 -4 0 -8 -4 -8 -9 0 -4 -14 -39
-32 -77 -17 -38 -31 -73 -29 -78 1 -5 -2 -12 -7 -15 -4 -3 -19 -33 -32 -66
-24 -59 -26 -65 -29 -86 0 -5 -6 -7 -12 -4 -6 4 -9 1 -8 -6 2 -8 -5 -29 -14
-46 -10 -18 -14 -33 -10 -33 5 0 4 -4 -2 -8 -18 -13 -57 -100 -50 -111 3 -6 1
-11 -4 -11 -6 0 -11 -9 -11 -21 0 -11 -4 -17 -10 -14 -5 3 -10 -1 -10 -10 0
-9 -7 -27 -16 -40 -9 -14 -14 -32 -10 -40 3 -9 2 -14 -2 -11 -5 3 -14 -12 -22
-32 -15 -43 -41 -103 -81 -188 -16 -34 -29 -69 -29 -78 0 -9 -3 -16 -8 -16 -4
0 -18 -28 -31 -62 -13 -35 -40 -97 -59 -138 -20 -41 -37 -82 -39 -90 -1 -8
-16 -43 -33 -78 -16 -34 -30 -65 -30 -68 0 -3 -9 -25 -20 -49 -38 -83 -23 -88
249 -83 105 1 193 1 194 -2 2 -3 3 0 2 5 -3 11 21 36 27 29 3 -2 11 15 18 38
7 24 18 52 26 63 8 11 14 26 14 34 0 8 17 51 38 95 21 45 53 117 72 161 18 44
45 105 59 135 14 30 25 57 26 60 0 3 9 23 19 45 10 22 21 49 26 60 4 11 19 45
33 75 14 30 33 73 43 95 10 22 25 46 34 53 8 8 9 11 3 7 -16 -8 -17 7 -1 23 7
7 9 12 5 12 -4 0 6 26 22 58 25 48 60 124 66 142 1 3 6 16 12 30 6 14 12 30
13 35 1 6 11 22 22 38 11 15 17 27 14 27 -3 0 0 13 5 30 6 17 16 27 22 23 6
-3 7 -1 3 5 -4 7 -2 20 3 29 6 10 11 13 11 6 0 -7 7 -10 17 -6 12 5 15 2 10
-10 -3 -9 -1 -19 5 -23 7 -5 8 -2 3 6 -5 8 -3 11 4 9 7 -3 12 -9 12 -14 0 -6
7 -14 15 -18 8 -5 11 -13 8 -19 -4 -6 -2 -8 4 -4 6 3 13 -3 17 -14 4 -11 11
-17 17 -14 8 5 9 1 4 -12 -4 -10 -4 -15 0 -12 11 12 36 -22 31 -42 -4 -17 -2
-18 14 -9 15 7 19 7 17 -3 -2 -7 3 -12 10 -10 6 1 12 -5 12 -14 0 -9 -5 -12
-12 -8 -7 4 -8 3 -4 -4 4 -6 13 -9 21 -6 17 7 37 -29 29 -53 -6 -16 -5 -15 10
2 13 17 15 17 10 2 -5 -13 -2 -16 9 -11 8 3 18 0 23 -7 5 -8 3 -10 -7 -4 -7 5
7 -11 31 -36 55 -56 70 -75 70 -89 0 -6 4 -9 9 -6 13 8 21 -19 10 -33 -6 -8
-5 -8 3 -1 8 6 20 0 40 -20 15 -16 28 -34 28 -39 0 -6 5 -13 12 -17 7 -4 8 -3
4 4 -4 7 -5 12 -2 12 2 0 19 -22 37 -50 18 -27 38 -50 46 -50 7 0 13 -4 13
-10 0 -16 50 -12 56 5 4 8 10 13 14 10 9 -6 23 25 15 33 -3 3 -5 -1 -5 -8 0
-7 -3 -11 -6 -7 -3 3 1 18 9 34 28 53 52 108 52 123 1 8 7 14 14 12 9 -2 10 4
6 19 -5 15 -4 19 5 14 9 -5 10 -1 5 15 -4 14 -3 20 3 16 5 -3 15 16 22 42 8
26 19 56 26 67 14 22 5 53 -20 74 -9 7 -14 17 -11 21 3 5 0 12 -6 16 -8 5 -9
3 -4 -7 5 -8 -7 2 -26 21 -20 19 -34 38 -32 41 1 4 -4 10 -13 13 -9 3 -14 13
-11 21 4 10 1 12 -11 8 -9 -3 -14 -3 -10 1 4 5 -7 21 -23 37 -16 15 -29 33
-29 39 0 6 -3 9 -7 7 -5 -3 -26 18 -48 45 -22 28 -62 73 -88 101 -27 28 -63
69 -80 91 -18 22 -60 70 -94 106 -35 36 -63 70 -63 76 0 6 -22 29 -50 51 -27
22 -47 43 -44 45 6 6 -344 7 -367 1z m199 -33 l167 0 52 -63 c29 -34 62 -73
75 -87 13 -14 57 -63 98 -110 41 -46 80 -90 85 -96 6 -6 35 -39 65 -74 30 -35
76 -86 101 -114 143 -157 181 -206 172 -219 -5 -6 -16 -28 -23 -47 -7 -19 -23
-57 -36 -85 -12 -27 -32 -72 -43 -100 -12 -27 -26 -59 -31 -70 -5 -11 -14 -32
-20 -47 -5 -16 -13 -28 -17 -27 -5 0 -23 19 -41 42 -19 23 -53 62 -75 87 -23
25 -71 79 -106 120 -36 41 -74 85 -85 96 -12 12 -86 96 -166 188 -101 116
-146 161 -148 149 -2 -10 -16 -46 -33 -81 -16 -35 -29 -65 -29 -67 0 -3 -13
-34 -30 -70 -16 -36 -30 -68 -30 -70 0 -3 -15 -38 -33 -77 -28 -60 -90 -202
-202 -463 -18 -41 -52 -118 -84 -190 -15 -33 -63 -142 -106 -243 l-80 -182
-214 0 c-199 0 -213 1 -208 17 5 18 70 167 120 276 15 32 27 60 27 62 0 3 43
103 96 222 83 190 123 280 179 408 7 17 23 53 35 80 12 28 29 66 37 85 8 19
21 49 29 65 72 162 104 235 104 239 0 3 13 34 29 68 15 35 43 97 60 138 18 41
42 95 53 120 11 25 29 65 39 89 14 31 23 41 35 37 9 -3 91 -6 182 -6z"/>
<path d="M2985 2569 c-4 -6 -5 -12 -2 -15 2 -3 7 2 10 11 7 17 1 20 -8 4z"/>
<path d="M2956 2502 c-3 -5 1 -9 9 -9 8 0 12 4 9 9 -3 4 -7 8 -9 8 -2 0 -6 -4
-9 -8z"/>
<path d="M2998 2072 c9 -10 19 -17 21 -16 6 5 -20 34 -30 34 -5 0 -1 -8 9 -18z"/>
<path d="M3101 1993 c7 -12 15 -20 18 -17 3 2 -3 12 -13 22 -17 16 -18 16 -5
-5z"/>
<path d="M2166 1183 c-6 -14 -5 -15 5 -6 7 7 10 15 7 18 -3 3 -9 -2 -12 -12z"/>
<path d="M4043 2789 c-13 -4 -23 -13 -23 -19 0 -6 -5 -8 -12 -4 -6 4 -8 3 -5
-3 4 -6 0 -16 -8 -23 -8 -7 -12 -16 -9 -21 3 -5 0 -18 -7 -30 -7 -15 -13 -18
-18 -10 -5 7 -8 0 -8 -16 0 -15 -11 -50 -24 -78 -13 -27 -24 -52 -24 -55 -12
-44 -38 -89 -48 -83 -6 3 -7 1 -3 -5 4 -7 4 -18 -1 -24 -4 -7 -8 -15 -8 -18 0
-13 -40 -96 -49 -101 -4 -4 -6 -11 -2 -17 3 -6 2 -13 -3 -16 -5 -3 -12 -18
-16 -33 -3 -15 -15 -39 -26 -55 -11 -15 -18 -32 -15 -37 4 -5 3 -11 -1 -13
-11 -5 -49 -88 -57 -126 -4 -18 -11 -30 -16 -27 -5 3 -12 0 -16 -6 -4 -8 -3
-9 4 -5 7 4 12 2 12 -3 0 -6 -4 -11 -10 -11 -5 0 -10 -5 -10 -10 0 -6 -11 -33
-24 -60 -13 -28 -20 -48 -16 -45 5 3 -3 -16 -17 -42 -14 -27 -41 -86 -60 -133
-19 -47 -46 -107 -60 -135 -14 -27 -25 -52 -25 -55 0 -3 -4 -15 -9 -28 -5 -13
-9 -26 -9 -30 0 -4 -7 -15 -15 -26 -13 -17 -16 -16 -47 20 -18 21 -48 53 -65
70 -18 18 -33 35 -33 39 0 3 -17 23 -37 44 -65 65 -131 140 -127 144 2 2 -14
23 -36 46 -22 23 -40 47 -40 52 0 4 -7 6 -15 3 -11 -5 -14 -2 -9 12 4 11 4 16
-1 12 -8 -8 -61 51 -58 64 2 4 -3 8 -11 8 -7 0 -24 15 -37 34 -13 19 -27 32
-31 30 -4 -3 -8 2 -8 10 0 9 -5 16 -11 16 -5 0 -8 4 -5 9 3 5 -7 14 -23 19
-25 9 -32 7 -48 -11 -22 -25 -45 -72 -50 -102 -2 -11 -12 -27 -23 -37 -20 -17
-28 -34 -10 -23 6 3 7 -1 4 -9 -3 -9 -11 -16 -16 -16 -6 0 -8 -7 -4 -15 3 -8
1 -15 -3 -15 -5 0 -17 -25 -26 -55 -10 -30 -21 -52 -26 -49 -5 3 -6 -3 -2 -12
5 -13 3 -15 -7 -9 -8 5 -11 4 -6 -3 3 -6 2 -22 -4 -37 -7 -19 -7 -24 1 -19 7
4 10 1 7 -7 -3 -8 2 -20 11 -27 13 -11 13 -12 1 -7 -8 4 -6 -1 4 -9 11 -9 23
-16 28 -16 4 0 4 -7 1 -17 -4 -11 -3 -14 5 -9 8 4 16 -2 22 -18 5 -14 22 -32
38 -40 16 -8 35 -23 43 -33 11 -15 10 -15 -11 2 l-25 20 19 -22 c10 -13 23
-20 27 -17 5 3 9 0 9 -6 0 -6 6 -17 13 -24 6 -7 35 -39 62 -72 28 -32 70 -79
95 -103 25 -25 38 -41 30 -37 -8 5 5 -11 30 -36 25 -24 47 -48 50 -53 3 -6 8
-9 13 -7 4 1 6 -2 5 -7 -2 -5 8 -18 20 -29 13 -12 21 -26 17 -31 -3 -6 0 -8 8
-5 8 3 18 0 23 -7 4 -7 3 -10 -2 -6 -5 3 -10 -3 -10 -13 0 -10 4 -17 7 -14 4
2 20 -6 34 -20 15 -13 37 -32 48 -42 13 -11 16 -19 9 -22 -7 -2 -12 -8 -12
-13 0 -4 6 -6 14 -3 8 3 26 -2 39 -11 21 -13 51 -16 184 -14 88 1 165 -1 171
-5 7 -4 12 -3 12 3 0 6 7 8 15 5 11 -5 13 -2 8 12 -4 12 -3 15 6 10 6 -4 11
-4 9 1 -1 4 13 40 32 78 18 39 32 74 31 79 -1 5 3 12 9 16 6 4 12 13 14 21 1
8 11 34 22 59 11 25 29 68 39 95 11 28 25 56 32 63 7 8 11 18 8 23 -4 5 -1 9
5 9 7 0 9 7 6 16 -4 10 -2 13 6 8 8 -5 9 -2 5 9 -3 10 -2 17 3 17 5 0 13 12
16 28 4 15 25 65 48 112 22 47 40 91 39 98 0 6 4 12 9 12 6 0 7 7 4 16 -3 8
-2 13 2 10 4 -3 23 34 41 82 19 48 44 107 57 131 13 24 21 47 18 52 -3 5 0 9
5 9 6 0 11 8 11 18 0 9 11 37 25 61 14 23 25 49 25 57 0 8 5 14 10 14 6 0 10
7 10 15 0 9 9 33 20 54 10 21 16 41 13 45 -4 3 -1 6 5 6 7 0 11 3 10 8 -1 4 4
18 10 32 29 67 85 198 95 223 6 15 15 27 19 27 4 0 8 9 8 19 0 11 16 50 35 86
19 37 32 71 30 75 -3 5 -1 11 4 14 5 4 17 29 27 58 l17 51 -24 18 c-22 17 -43
19 -214 18 -104 -1 -200 -5 -212 -10z m420 -25 c3 -4 -5 -28 -19 -55 -13 -27
-33 -70 -43 -96 -10 -27 -30 -73 -44 -103 -14 -30 -37 -82 -51 -115 -13 -33
-38 -89 -54 -125 -17 -36 -42 -93 -56 -127 -14 -35 -37 -86 -50 -115 -13 -29
-35 -79 -50 -111 -14 -32 -26 -60 -26 -62 0 -2 -13 -34 -30 -70 -16 -36 -30
-67 -30 -69 0 -2 -15 -37 -34 -78 -19 -40 -43 -95 -54 -123 -11 -27 -36 -85
-56 -128 -20 -42 -36 -79 -36 -82 0 -4 -9 -26 -90 -205 -21 -47 -46 -103 -55
-125 -9 -22 -23 -57 -32 -77 l-17 -38 -181 0 -182 0 -116 132 c-64 73 -126
144 -137 158 -12 14 -40 45 -63 70 -23 25 -71 79 -107 120 -35 41 -67 77 -70
80 -3 3 -39 43 -80 90 -41 47 -79 88 -83 91 -5 3 3 31 17 62 14 32 37 82 51
112 14 31 25 57 25 60 0 2 13 32 29 67 16 35 32 74 36 87 l7 24 28 -31 c31
-36 150 -169 165 -186 6 -6 39 -45 75 -86 36 -41 67 -77 70 -80 4 -4 175 -198
249 -282 13 -16 27 -28 30 -28 3 0 12 15 20 33 8 17 26 59 41 92 15 33 73 166
129 295 56 129 109 251 118 270 15 33 75 169 245 562 l82 188 205 3 c113 1
209 3 212 5 3 1 8 -1 12 -4z"/>
<path d="M3816 2153 c-6 -14 -5 -15 5 -6 7 7 10 15 7 18 -3 3 -9 -2 -12 -12z"/>
<path d="M2995 1710 c-4 -6 -11 -7 -17 -4 -7 4 -8 2 -4 -5 6 -9 11 -9 22 0 14
11 18 19 10 19 -3 0 -8 -5 -11 -10z"/>
<path d="M3937 1694 c-3 -3 -3 -13 0 -22 5 -11 3 -13 -7 -7 -9 5 -11 4 -6 -4
10 -16 25 -4 23 19 -1 22 -1 22 -10 14z"/>
<path d="M2690 1626 c0 -8 4 -17 9 -20 5 -4 7 3 4 14 -6 23 -13 26 -13 6z"/>
<path d="M2792 1480 c0 -14 2 -19 5 -12 2 6 2 18 0 25 -3 6 -5 1 -5 -13z"/>
<path d="M2850 1436 c7 -7 13 -7 20 0 6 6 3 10 -10 10 -13 0 -16 -4 -10 -10z"/>
<path d="M2915 1340 c3 -5 8 -10 11 -10 2 0 4 5 4 10 0 6 -5 10 -11 10 -5 0
-7 -4 -4 -10z"/>
<path d="M3070 1880 c0 -5 5 -10 11 -10 5 0 7 5 4 10 -3 6 -8 10 -11 10 -2 0
-4 -4 -4 -10z"/>
</g>
</svg>
